<?xml version="1.0" encoding="utf-8"?>
<!-- Generator: Adobe Illustrator 16.0.0, SVG Export Plug-In . SVG Version: 6.00 Build 0)  -->
<!DOCTYPE svg PUBLIC "-//W3C//DTD SVG 1.1//EN" "http://www.w3.org/Graphics/SVG/1.1/DTD/svg11.dtd">
<svg version="1.1" id="圖層_1" xmlns="http://www.w3.org/2000/svg" xmlns:xlink="http://www.w3.org/1999/xlink" x="0px" y="0px"
	 width="50px" height="50px" viewBox="0 0 50 50" enable-background="new 0 0 50 50" xml:space="preserve">
<g>
	<path fill="#FFFFFF" d="M11.756,46.605c0,0,0.744,3.395,4.578,3.395h17.333c3.833,0,4.578-3.395,4.578-3.395l3.422-33.271H8.333
		L11.756,46.605z M31.668,18.334c0-0.92,0.745-1.667,1.666-1.667c0.92,0,1.667,0.747,1.667,1.667l-1.667,25
		c0,0.92-0.747,1.666-1.666,1.666C30.746,45,30,44.254,30,43.334L31.668,18.334z M23.334,18.334c0-0.92,0.747-1.667,1.667-1.667
		c0.919,0,1.665,0.747,1.665,1.667v25c0,0.92-0.746,1.666-1.665,1.666c-0.922,0-1.667-0.746-1.667-1.666V18.334z M16.667,16.667
		c0.92,0,1.667,0.746,1.667,1.667l1.666,25C20,44.254,19.254,45,18.334,45c-0.921,0-1.667-0.746-1.667-1.666l-1.667-25
		C15,17.414,15.747,16.667,16.667,16.667L16.667,16.667z M40.667,6.669h-7.333V3.334C33.334,0.805,32.516,0,30,0H20
		c-2.307,0-3.333,1.117-3.333,3.334v3.335H9.334c-1.474,0-2.667,1.12-2.667,2.502c0,1.382,1.193,2.5,2.667,2.5h31.333
		c1.474,0,2.667-1.119,2.667-2.5C43.334,7.789,42.141,6.669,40.667,6.669L40.667,6.669z M30,6.669H20l0.001-3.335H30V6.669z"/>
</g>
</svg>
