<?xml version="1.0" encoding="utf-8"?>
<!-- Generator: Adobe Illustrator 16.0.0, SVG Export Plug-In . SVG Version: 6.00 Build 0)  -->
<!DOCTYPE svg PUBLIC "-//W3C//DTD SVG 1.1//EN" "http://www.w3.org/Graphics/SVG/1.1/DTD/svg11.dtd">
<svg version="1.1" xmlns="http://www.w3.org/2000/svg" xmlns:xlink="http://www.w3.org/1999/xlink" x="0px" y="0px" width="80px"
	 height="80px" viewBox="0 0 80 80" enable-background="new 0 0 80 80" xml:space="preserve">
<g id="Background">
</g>
<g id="Objects">
	<path fill="#FFFFFF" d="M69.574,13.021c-4.643,2.601-8.608,7.42-12.502,11.039c-3.794,3.527-7.589,7.056-11.383,10.583
		c-5.876,5.463-11.752,10.925-17.628,16.388c-5.483-6.676-10.98-13.34-16.513-19.976c-2.353-2.821-7.184-2.431-9.616,0
		c-2.831,2.831-2.309,6.745,0,9.616C8.749,49.149,15.608,57.589,22.5,66.008c2.434,2.973,7.283,2.347,9.809,0
		c7.729-7.188,15.458-14.372,23.188-21.557c3.794-3.527,7.589-7.056,11.383-10.583c3.945-3.667,8.836-7.226,11.811-11.73
		C82.496,16.376,75.133,9.907,69.574,13.021z"/>
</g>
</svg>
