<?xml version="1.0" encoding="utf-8"?>
<!-- Generator: Adobe Illustrator 16.0.0, SVG Export Plug-In . SVG Version: 6.00 Build 0)  -->
<!DOCTYPE svg PUBLIC "-//W3C//DTD SVG 1.1//EN" "http://www.w3.org/Graphics/SVG/1.1/DTD/svg11.dtd">
<svg version="1.1" id="圖層_1" xmlns="http://www.w3.org/2000/svg" xmlns:xlink="http://www.w3.org/1999/xlink" x="0px" y="0px"
	 width="80px" height="80px" viewBox="0 0 80 80" enable-background="new 0 0 80 80" xml:space="preserve">
<g>
	<path fill="#3CA7D1" d="M68.113,3.646H11.886c-6.243,0-11.304,4.851-11.304,10.833V51.54c0,5.983,5.062,10.833,11.304,10.833H28.02
		c0,0,8.373,15.98,11.979,15.98c3.607,0,11.98-15.98,11.98-15.98h16.133c6.244,0,11.305-4.85,11.305-10.833V14.479
		C79.418,8.496,74.356,3.646,68.113,3.646z M73.17,54.104c0,1.339-1.133,2.425-2.53,2.425H55.501h-6.709l-3.521,5.844L40,71.123
		l-5.271-8.75l-3.521-5.844h-6.709H9.359c-1.397,0-2.529-1.086-2.529-2.425v-42.19c0-1.339,1.132-2.425,2.529-2.425H70.64
		c1.397,0,2.53,1.086,2.53,2.425V54.104z"/>
	<path fill="#3CA7D1" d="M56.749,36.109H23.25c-1.86,0-3.369,1.677-3.369,3.742c0,2.066,1.509,3.742,3.369,3.742h33.498
		c1.861,0,3.37-1.676,3.37-3.742C60.118,37.786,58.609,36.109,56.749,36.109z"/>
	<path fill="#3CA7D1" d="M59.411,20.715H20.588c-2.156,0-3.904,1.676-3.904,3.742s1.748,3.741,3.904,3.741h38.823
		c2.156,0,3.905-1.675,3.905-3.741S61.567,20.715,59.411,20.715z"/>
</g>
</svg>
