<?xml version="1.0" encoding="utf-8"?>
<!-- Generator: Adobe Illustrator 16.0.0, SVG Export Plug-In . SVG Version: 6.00 Build 0)  -->
<!DOCTYPE svg PUBLIC "-//W3C//DTD SVG 1.1//EN" "http://www.w3.org/Graphics/SVG/1.1/DTD/svg11.dtd">
<svg version="1.1" id="Livello_2" xmlns="http://www.w3.org/2000/svg" xmlns:xlink="http://www.w3.org/1999/xlink" x="0px" y="0px"
	 width="25px" height="48px" viewBox="0 0 25 48" enable-background="new 0 0 25 48" xml:space="preserve">
<path fill="#37B1E0" d="M7,1.018V0H0v10.972V23.65v12.678V48h7v-1.717c4-10.705,18-6.729,18-19.072V23.65V20.09
	C25,7.745,11,11.723,7,1.018z"/>
<path fill="#FFFFFF" d="M13.432,28.905l4.764-4.762c0.074-0.076,0.074-0.21,0-0.286l-4.764-4.762c-0.037-0.039-0.09-0.06-0.143-0.06
	c-0.054,0-0.104,0.021-0.143,0.06l-1.314,1.313c-0.039,0.039-0.06,0.092-0.06,0.143c0,0.053,0.021,0.105,0.06,0.145l3.307,3.306
	l-3.307,3.305c-0.076,0.076-0.076,0.21,0,0.287l1.314,1.313C13.225,28.985,13.354,28.985,13.432,28.905"/>
</svg>
