<?xml version="1.0" encoding="utf-8"?>
<!-- Generator: Adobe Illustrator 16.0.0, SVG Export Plug-In . SVG Version: 6.00 Build 0)  -->
<!DOCTYPE svg PUBLIC "-//W3C//DTD SVG 1.1//EN" "http://www.w3.org/Graphics/SVG/1.1/DTD/svg11.dtd">
<svg version="1.1" id="圖層_1" xmlns="http://www.w3.org/2000/svg" xmlns:xlink="http://www.w3.org/1999/xlink" x="0px" y="0px"
	 width="50px" height="50px" viewBox="0 0 50 50" enable-background="new 0 0 50 50" xml:space="preserve">
<g>
	
		<rect x="15.001" y="11.831" transform="matrix(0.7071 0.7071 -0.7071 0.7071 25.0371 -10.2653)" fill="#3CA7D1" width="19.818" height="26.518"/>
	<path fill="#3CA7D1" d="M46.991,13.223L36.778,3.009c-1.05-1.05-2.751-1.049-3.8,0l-4.219,4.219l14.014,14.013l4.219-4.219
		C48.04,15.973,48.041,14.272,46.991,13.223z"/>
	<path fill="#3CA7D1" d="M7.048,28.938L3.82,43.92c-0.143,0.274-0.208,0.575-0.189,0.877c0.024,0.394,0.18,0.781,0.48,1.082
		c0.311,0.31,0.712,0.469,1.119,0.484c0.276,0.011,0.552-0.049,0.806-0.174l15.026-3.238L7.048,28.938z"/>
</g>
</svg>
