<?xml version="1.0" encoding="utf-8"?>
<!-- Generator: Adobe Illustrator 16.0.0, SVG Export Plug-In . SVG Version: 6.00 Build 0)  -->
<!DOCTYPE svg PUBLIC "-//W3C//DTD SVG 1.1//EN" "http://www.w3.org/Graphics/SVG/1.1/DTD/svg11.dtd">
<svg version="1.1" id="Layer_1" xmlns="http://www.w3.org/2000/svg" xmlns:xlink="http://www.w3.org/1999/xlink" x="0px" y="0px"
	 width="60px" height="60px" viewBox="0 0 60 60" enable-background="new 0 0 60 60" xml:space="preserve">
<path fill="#EEEEEE" d="M37.126,24.775c3.657-2.352,6.085-6.445,6.085-11.114c0-7.296-5.916-13.21-13.211-13.21
	c-7.297,0-13.211,5.914-13.211,13.21c0,4.669,2.428,8.763,6.085,11.114c-8.616,0.77-15.395,8.028-15.395,16.842v13.712l0.035,0.217
	l0.945,0.294c8.899,2.78,16.633,3.709,22.999,3.709c12.431,0,19.636-3.547,20.083-3.771l0.883-0.449h0.093V41.617
	C52.519,32.806,45.742,25.548,37.126,24.775z"/>
</svg>
