<?xml version="1.0" encoding="utf-8"?>
<!-- Generator: Adobe Illustrator 16.0.0, SVG Export Plug-In . SVG Version: 6.00 Build 0)  -->
<!DOCTYPE svg PUBLIC "-//W3C//DTD SVG 1.1//EN" "http://www.w3.org/Graphics/SVG/1.1/DTD/svg11.dtd">
<svg version="1.1" id="分離模式" xmlns="http://www.w3.org/2000/svg" xmlns:xlink="http://www.w3.org/1999/xlink" x="0px"
	 y="0px" width="25px" height="25px" viewBox="0 0 25 25" enable-background="new 0 0 25 25" xml:space="preserve">
<g>
	<polygon fill="#AAAAAA" points="11.237,13.322 13.92,15.917 15.457,14.335 12.777,11.74 	"/>
	<path fill="#AAAAAA" d="M1.501,8.147c0,3.793,3.082,6.871,6.882,6.871c3.802,0,6.885-3.078,6.885-6.871s-3.083-6.863-6.885-6.863
		C4.583,1.284,1.501,4.354,1.501,8.147z M3.467,8.147c0-2.707,2.2-4.902,4.916-4.902c2.715,0,4.916,2.195,4.916,4.902
		c0,2.71-2.201,4.906-4.916,4.906C5.667,13.053,3.467,10.857,3.467,8.147z"/>
	<path fill="#AAAAAA" d="M8.021,4.083V4.077c2.472,0.145,4.447,2.109,4.605,4.572c0,0,0.004,0.004,0.004,0.006
		c0,0-0.004,0.002-0.004,0.004C12.63,8.665,12.63,8.67,12.63,8.674h-0.009c-0.01,0.193-0.165,0.346-0.36,0.346
		c-0.195,0-0.352-0.152-0.363-0.346h-0.004c-0.143-2.067-1.799-3.717-3.871-3.863H8.021c-0.203,0-0.365-0.16-0.365-0.363
		C7.656,4.245,7.818,4.083,8.021,4.083z"/>
	<path fill="#AAAAAA" d="M16.805,14.439l6.104,5.912c0.774,0.75,0.789,1.988,0.03,2.767c-0.754,0.778-1.994,0.801-2.77,0.049
		l-6.105-5.91L16.805,14.439z"/>
</g>
</svg>
