<?xml version="1.0" encoding="utf-8"?>
<!-- Generator: Adobe Illustrator 16.0.0, SVG Export Plug-In . SVG Version: 6.00 Build 0)  -->
<!DOCTYPE svg PUBLIC "-//W3C//DTD SVG 1.1//EN" "http://www.w3.org/Graphics/SVG/1.1/DTD/svg11.dtd">
<svg version="1.1" id="Layer_1" xmlns="http://www.w3.org/2000/svg" xmlns:xlink="http://www.w3.org/1999/xlink" x="0px" y="0px"
	 width="50px" height="50px" viewBox="0 0 50 50" enable-background="new 0 0 50 50" xml:space="preserve">
<path fill="#FFFFFF" d="M42.846,19.474l-1.244-2.954c0,0,2.893-6.521,2.635-6.772l-3.825-3.736c-0.267-0.258-6.79,2.719-6.79,2.719
	l-3.01-1.216c0,0-2.658-6.609-3.024-6.609h-5.4c-0.375,0-2.838,6.625-2.838,6.625L16.346,8.75c0,0-6.66-2.831-6.919-2.579
	L5.609,9.914c-0.267,0.255,2.774,6.647,2.774,6.647l-1.24,2.947c0,0-6.754,2.602-6.754,2.953v5.291c0,0.371,6.77,2.782,6.77,2.782
	l1.242,2.943c0,0-2.889,6.517-2.637,6.768l3.827,3.745c0.257,0.253,6.785-2.722,6.785-2.722l3.013,1.219
	c0,0,2.658,6.606,3.026,6.606h5.401c0.374,0,2.836-6.627,2.836-6.627l3.015-1.22c0,0,6.646,2.832,6.904,2.584l3.829-3.742
	c0.264-0.261-2.784-6.65-2.784-6.65l1.239-2.947c0,0,6.756-2.604,6.756-2.961v-5.291C49.612,21.879,42.846,19.474,42.846,19.474z
	 M32.892,24.997c0,4.256-3.54,7.725-7.891,7.725c-4.348,0-7.891-3.468-7.891-7.725c0-4.255,3.543-7.717,7.891-7.717
	C29.353,17.283,32.892,20.742,32.892,24.997z"/>
</svg>
