<?xml version="1.0" encoding="utf-8"?>
<!-- Generator: Adobe Illustrator 16.0.0, SVG Export Plug-In . SVG Version: 6.00 Build 0)  -->
<!DOCTYPE svg PUBLIC "-//W3C//DTD SVG 1.1//EN" "http://www.w3.org/Graphics/SVG/1.1/DTD/svg11.dtd">
<svg version="1.1" id="Layer_1" xmlns="http://www.w3.org/2000/svg" xmlns:xlink="http://www.w3.org/1999/xlink" x="0px" y="0px"
	 width="50px" height="50px" viewBox="0 0 50 50" enable-background="new 0 0 50 50" xml:space="preserve">
<path fill="#FFFFFF" d="M43.03,19.416l-1.256-2.981c0,0,2.922-6.588,2.661-6.842l-3.864-3.774c-0.27-0.262-6.86,2.746-6.86,2.746
	L30.67,7.335c0,0-2.686-6.678-3.055-6.678h-5.457c-0.378,0-2.865,6.694-2.865,6.694l-3.036,1.229c0,0-6.73-2.858-6.989-2.604
	l-3.86,3.782c-0.267,0.258,2.805,6.715,2.805,6.715l-1.255,2.979c0,0-6.822,2.629-6.822,2.983v5.348c0,0.373,6.839,2.81,6.839,2.81
	l1.255,2.973c0,0-2.92,6.584-2.666,6.838l3.866,3.784c0.261,0.258,6.856-2.752,6.856-2.752l3.044,1.233c0,0,2.685,6.674,3.056,6.674
	h5.456c0.379,0,2.867-6.694,2.867-6.694l3.045-1.231c0,0,6.717,2.86,6.977,2.61l3.866-3.78c0.268-0.264-2.812-6.718-2.812-6.718
	l1.252-2.978c0,0,6.826-2.633,6.826-2.993v-5.344C49.865,21.846,43.03,19.416,43.03,19.416z M32.973,24.997
	c0,4.301-3.577,7.805-7.972,7.805c-4.391,0-7.973-3.504-7.973-7.805c0-4.299,3.582-7.795,7.973-7.795
	C29.398,17.203,32.973,20.698,32.973,24.997z"/>
</svg>
