<?xml version="1.0" encoding="utf-8"?>
<!-- Generator: Adobe Illustrator 16.0.0, SVG Export Plug-In . SVG Version: 6.00 Build 0)  -->
<!DOCTYPE svg PUBLIC "-//W3C//DTD SVG 1.1//EN" "http://www.w3.org/Graphics/SVG/1.1/DTD/svg11.dtd">
<svg version="1.1" id="Layer_1" xmlns="http://www.w3.org/2000/svg" xmlns:xlink="http://www.w3.org/1999/xlink" x="0px" y="0px"
	 width="42.5px" height="42.5px" viewBox="0 0 42.5 42.5" enable-background="new 0 0 42.5 42.5" xml:space="preserve">
<path fill="#FFFFFF" d="M39.463,9.742H3.135c-1.671,0-3.027,0.685-3.027,1.527v1.528c0,0.845,1.356,1.527,3.027,1.527h36.328
	c1.671,0,3.027-0.683,3.027-1.527V11.27C42.49,10.427,41.137,9.742,39.463,9.742z"/>
<path fill="#FFFFFF" d="M39.463,18.911H3.135c-1.671,0-3.027,0.683-3.027,1.526v1.527c0,0.844,1.356,1.528,3.027,1.528h36.328
	c1.671,0,3.027-0.685,3.027-1.528v-1.527C42.49,19.594,41.137,18.911,39.463,18.911z"/>
<path fill="#FFFFFF" d="M39.463,28.077H3.135c-1.671,0-3.027,0.685-3.027,1.527v1.528c0,0.844,1.356,1.527,3.027,1.527h36.328
	c1.671,0,3.027-0.684,3.027-1.527v-1.528C42.49,28.762,41.137,28.077,39.463,28.077z"/>
</svg>
