<?xml version="1.0" encoding="utf-8"?>
<!-- Generator: Adobe Illustrator 16.0.0, SVG Export Plug-In . SVG Version: 6.00 Build 0)  -->
<!DOCTYPE svg PUBLIC "-//W3C//DTD SVG 1.1//EN" "http://www.w3.org/Graphics/SVG/1.1/DTD/svg11.dtd">
<svg version="1.1" id="圖層_1" xmlns="http://www.w3.org/2000/svg" xmlns:xlink="http://www.w3.org/1999/xlink" x="0px" y="0px"
	 width="172.021px" height="122.671px" viewBox="0 0 172.021 122.671" enable-background="new 0 0 172.021 122.671"
	 xml:space="preserve">
<g>
	<path fill="#FFFFFF" d="M93.328,66.848c-0.935,0-1.887,0.055-2.93,0.164c-6.628-12.322-19.241-19.92-33.266-19.92
		c-16.902,0-31.606,11.15-36.255,27.28C11.798,74.576,3.949,79.816,0,87.396c1.946-1.236,4.083-2.141,6.389-2.601
		c3.732-4.086,9.083-6.67,15.036-6.67l0.826,0.037c0.899-0.037,1.669-0.567,1.87-1.428c3.749-15.234,17.337-25.89,33.012-25.89
		c13.033,0,24.733,7.304,30.519,19.042c0.366,0.732,1.154,1.139,1.96,1.025c1.409-0.221,2.6-0.312,3.717-0.312
		c13.328,0,24.168,10.82,24.168,24.149c0,13.33-10.84,24.168-24.168,24.168h-7.954c0.704,1.111,1.174,2.371,1.336,3.754h6.618
		c15.397,0,27.921-12.523,27.921-27.922C121.249,79.371,108.707,66.848,93.328,66.848z"/>
	<path fill="#FFFFFF" d="M21.425,78.125"/>
	<path fill="#FFFFFF" d="M93.328,122.671c-1.044,0-1.868-0.842-1.868-1.867c0-1.043,0.824-1.887,1.868-1.887
		c13.328,0,24.168-10.838,24.168-24.168c0-13.31-10.84-24.149-24.168-24.149c-6.994,0-13.623,3.021-18.221,8.275
		c-0.675,0.788-1.865,0.86-2.634,0.183c-0.787-0.677-0.863-1.867-0.184-2.654c5.292-6.078,12.966-9.557,21.038-9.557
		c15.397,0,27.921,12.523,27.921,27.902C121.249,110.148,108.726,122.671,93.328,122.671L93.328,122.671z"/>
	<path fill="#FFFFFF" d="M93.328,122.671"/>
	<path fill="#FFFFFF" d="M132.437,85.742c-0.477,0-0.971-0.184-1.337-0.549c-0.732-0.732-0.714-1.922,0.019-2.655
		c5.584-5.565,8.66-12.981,8.66-20.854c0-16.238-13.201-29.459-29.441-29.459c-8.551,0-16.661,3.717-22.264,10.18
		c-0.678,0.77-1.865,0.863-2.653,0.184c-0.769-0.676-0.862-1.866-0.183-2.635c6.314-7.29,15.469-11.484,25.1-11.484
		c18.291,0,33.194,14.906,33.194,33.197c0,8.898-3.479,17.246-9.777,23.527C133.389,85.558,132.912,85.742,132.437,85.742
		L132.437,85.742z"/>
	<path fill="#FFFFFF" d="M132.437,85.742"/>
	<path fill="#FFFFFF" d="M110.337,17.815c-1.044,0-1.886-0.824-1.886-1.865V1.87c0-1.027,0.842-1.87,1.886-1.87
		c1.025,0,1.867,0.842,1.867,1.87v14.08C112.204,16.991,111.362,17.815,110.337,17.815L110.337,17.815z M110.337,17.815"/>
	<path fill="#FFFFFF" d="M170.135,63.551h-14.062c-1.044,0-1.886-0.842-1.886-1.867c0-1.041,0.842-1.886,1.886-1.886h14.062
		c1.044,0,1.886,0.845,1.886,1.886C172.021,62.709,171.179,63.551,170.135,63.551L170.135,63.551z M170.135,63.551"/>
	<path fill="#FFFFFF" d="M142.671,31.215c-0.476,0-0.975-0.183-1.337-0.547c-0.732-0.732-0.732-1.922,0-2.652l9.961-9.942
		c0.732-0.737,1.922-0.737,2.654,0c0.732,0.73,0.732,1.92,0,2.653l-9.96,9.942C143.623,31.032,143.147,31.215,142.671,31.215
		L142.671,31.215z M142.671,31.215"/>
	<path fill="#FFFFFF" d="M152.613,105.845c-0.477,0-0.952-0.184-1.318-0.549l-9.961-9.941c-0.732-0.732-0.732-1.924,0-2.65
		c0.732-0.738,1.923-0.738,2.655,0l9.96,9.938c0.715,0.732,0.715,1.922,0,2.654C153.583,105.662,153.089,105.845,152.613,105.845
		L152.613,105.845z M152.613,105.845"/>
	<path fill="#FFFFFF" d="M77.984,31.215c-0.476,0-0.949-0.183-1.315-0.547l-9.965-9.942c-0.712-0.732-0.712-1.922,0-2.653
		c0.734-0.737,1.927-0.737,2.657,0l9.941,9.942c0.73,0.73,0.73,1.92,0,2.652C78.955,31.032,78.458,31.215,77.984,31.215
		L77.984,31.215z M77.984,31.215"/>
</g>
</svg>
