<?xml version="1.0" encoding="utf-8"?>
<!-- Generator: Adobe Illustrator 16.0.0, SVG Export Plug-In . SVG Version: 6.00 Build 0)  -->
<!DOCTYPE svg PUBLIC "-//W3C//DTD SVG 1.1//EN" "http://www.w3.org/Graphics/SVG/1.1/DTD/svg11.dtd">
<svg version="1.1" id="圖層_1" xmlns="http://www.w3.org/2000/svg" xmlns:xlink="http://www.w3.org/1999/xlink" x="0px" y="0px"
	 width="1260.639px" height="418.324px" viewBox="0 0 1260.639 418.324" enable-background="new 0 0 1260.639 418.324"
	 xml:space="preserve">
<path d="M882.418,110.858V92.893c8.158-8.01,14.593-17.561,19.358-28.64h-19.358V1.118h3.944v18.523h32.564v11.22h-32.564v22.172
	h28.781v8.292c-6.892,16.975-15.171,30.437-24.999,40.116c8.979,7.323,20.22,13.206,33.385,17.548l-6.152,11.772
	C904.186,126.157,892.514,119.554,882.418,110.858 M882.418,1.118v63.135H863.06c4.2,11.248,10.527,21.061,18.523,29.481
	c0.283-0.29,0.565-0.565,0.834-0.841v17.965c-0.552-0.579-0.969-0.99-1.535-1.407c-12.492,10.104-26.95,17.413-43.508,21.902
	l-0.982-1.831v-10.655c14.323-4.22,26.398-9.968,36.333-17.426c-9.262-10.21-16.692-22.73-22.158-37.188h-7.027v-11.22h30.478
	V30.861h-31.043v-11.22h31.043V1.118H882.418z M836.393,71.435c1.696-0.721,3.244-1.42,4.752-2.127l-1.669-10.09
	c-0.969,0.444-1.952,0.68-3.083,1.117V71.435z M836.393,37.74h4.24V25.792h-4.24V37.74z M836.393,25.792V37.74H823.9v26.95
	c4.348-1.42,8.575-2.813,12.493-4.355v11.1c-4.052,1.817-8.145,3.486-12.493,5.183v38.306c0,6.024-0.982,9.981-2.652,12.216
	c-1.993,2.383-5.762,3.621-11.093,3.621c-4.9,0-9.531-0.539-13.892-1.804l-2.249-12.472c4.914,1.662,9.827,2.504,14.579,2.504
	c1.414,0,2.262-0.552,2.544-1.394c0.579-1.279,0.848-3.109,0.848-5.485V80.818c-5.627,1.958-11.523,3.655-17.419,5.351
	l-4.052-12.499c7.431-1.683,14.741-3.52,21.472-5.465V37.74h-17.972V25.792h17.972V1.118H823.9v24.675H836.393z M836.393,118.867
	c-1.548,0.397-3.083,0.841-4.618,1.239l4.618,9.417V118.867z M682.161,98.917V87.42l19.654-3.224V1.118h11.927v81.12l12.91-2.255
	l1.131,11.248l-14.041,2.504v37.026h-11.927V95.693L682.161,98.917z M682.161,73.791c0.7,0.868,1.548,1.542,2.261,2.396
	l7.849-10.225c-3.218-3.23-6.583-6.192-10.11-8.992V73.791z M682.161,33.083c2.544,2.692,4.914,5.364,7.296,8.144l7.875-10.366
	c-4.779-5.196-9.813-9.827-15.171-14.04V33.083z M682.161,16.821v16.262c-4.9-4.894-9.962-9.37-15.266-13.442l7.834-8.299
	C677.261,13.038,679.765,14.862,682.161,16.821 M682.161,56.97v16.82c-7.431-7.263-15.158-13.744-23.154-19.217l7.889-8.272
	C672.199,49.533,677.396,53.033,682.161,56.97 M682.161,87.42v11.497l-26.641,4.51V91.762L682.161,87.42z M655.52,82.238V75.5
	c0.956,0.962,1.952,1.958,2.787,2.8L655.52,82.238z M655.52,38.171h2.787v11.375h-2.787V38.171z M655.52,11.341v-0.269l0.121,0.269
	H655.52z M655.52,11.072v0.269c-6.771,1.696-13.893,3.379-21.323,4.914v21.916h21.323v11.362h-21.323v7.989
	c8.117,6.051,15.279,12.075,21.323,17.979v6.737l-4.523,6.313c-5.479-6.461-11.065-12.364-16.8-17.393v59.602h-11.968V73.939
	c-4.9,11.51-11.065,22.03-18.51,31.446l-7.31-8.972c4.927-5.627,9.989-13.482,15.319-23.74c4.079-7.142,7.431-14.862,9.948-23.141
	h-24.702V38.171h25.254V18.375c-6.421,1.131-13.165,2.093-20.179,3.089l-3.958-10.675c18.954-2.241,36.36-5.465,52.339-9.672
	L655.52,11.072z M655.52,91.762l-2.813,0.579l1.804,11.214l1.009-0.128V91.762z M504.493,128.957v-11.234h1.01
	c5.869,0,9.383-0.263,10.379-1.104c1.252-1.265,2.1-3.392,2.235-6.186c0.565-1.407,0.834-6.745,0.969-15.73l12.492,6.737
	c-0.687,12.365-2.234,20.227-4.496,23.464c-1.387,1.394-3.473,2.511-6.3,3.076c-1.831,0.565-6.866,0.976-15.279,0.976H504.493z
	 M504.493,52.481h23.72v11.22h-23.72V52.481z M504.493,39.975V18.941c1.683-2.538,3.096-5.048,4.523-7.6l10.769,6.192
	C514.75,26.385,509.689,33.951,504.493,39.975 M504.493,18.941v21.034c-1.817,2.249-3.796,4.355-5.748,6.327l-9.41-8.562
	C495.245,31.689,500.292,25.389,504.493,18.941 M504.493,52.481h-31.568V1.118h-12.344v51.363h-29.616v11.22h8.993
	c-1.548,14.323-4.631,25.268-8.993,32.712v20.206c2.948-2.813,5.762-5.917,8.266-9.403c6.731-10.117,11.362-24.548,13.489-43.515
	h22.32v53.611c0,7.148,5.6,10.944,16.841,11.234c3.782,0.276,7.996,0.411,12.613,0.411v-11.234c-3.796,0-6.865,0-9.113-0.263
	c-5.614,0-8.414-1.42-8.414-4.233V63.701h17.527V52.481z M430.964,38.171V17.413c5.196,6.146,10.393,13.166,15.576,20.758
	l-10.245,8.131C434.599,43.501,432.782,40.83,430.964,38.171 M430.964,17.413v20.758c-4.765-6.758-9.961-13.206-15.575-19.641
	l10.11-7.189C427.303,13.3,429.147,15.286,430.964,17.413 M430.964,63.701h-24.419v-11.22h24.419V63.701z M430.964,96.413v20.206
	c-6.596,6.159-14.592,10.628-23.854,13.603l-5.762-11.934c12.372-3.803,21.754-10.534,28.364-20.058
	C430.13,97.679,430.534,96.979,430.964,96.413 M235.756,122.233v-10.668h10.379V91.762h-10.379V81.249h21.62v47.156h-11.241v-6.172
	H235.756z M235.756,60.335h21.606v10.655h-21.606V60.335z M235.756,39.564h21.606v10.527h-21.606V39.564z M235.756,28.189V0h0.31
	c2.773,5.324,4.873,10.944,6.138,16.403h20.22v11.786H235.756z M265.923,7.828h55.732v73.42c0,8.838,0.148,16.006,0.404,21.754
	c0.431,5.028,0.982,9.107,1.831,12.062c0.835,2.935,1.562,4.368,2.235,4.368c0.565,0,1.131-0.996,1.548-2.948
	c0.579-2.538,1.118-9.706,1.683-21.781l10.836,5.62c-1.575,13.192-3.675,21.909-6.475,25.833c-1.965,3.09-4.483,4.604-7.592,4.604
	c-2.8,0-5.331-1.804-7.821-5.445c-2.706-3.924-4.671-9.275-5.91-16.154c-1.427-7.444-2.114-16.821-2.114-27.913V19.062h-20.058
	v38.46h15.71v11.086h-15.71v62.745h-11.941V68.608h-13.448V57.522h13.448v-38.46h-12.358V7.828z M235.756,0v28.189H207.85V16.403
	h21.458c-1.266-4.752-2.666-9.249-4.497-13.617L235.756,0z M235.756,50.091h-21.741V39.564h21.741V50.091z M235.756,70.991h-21.741
	V60.335h21.741V70.991z M235.756,81.249v10.514h-10.5v19.802h10.5v10.668h-10.5v7.424h-11.24V81.249H235.756z M112.271,129.522
	v-13.758c0-0.565,0.107-1.278,0.107-1.958v-11.247h-0.107v-9.666h0.107v-8.292h11.833v8.292h18.51v9.666h-18.51v13.361
	c0,5.748-1.131,9.262-3.244,10.79C119.164,128.257,116.202,129.247,112.271,129.522 M112.271,82.09
	c4.9-0.276,9.679-0.841,14.31-1.272c1.279,2.261,2.652,4.631,3.783,7.155l10.096-3.924c-3.204-6.165-7.148-11.786-11.9-17.123h6.866
	V24.689h-23.154v9.127h11.94v7.99h-11.94v8.286h11.94v8.01h-11.94v8.824h12.762l-6.448,2.948c0.714,0.841,1.562,1.811,2.235,2.652
	c-2.813,0.283-5.749,0.438-8.548,0.592V82.09z M112.271,8.407h25.954V18.51h-25.954V8.407z M112.271,8.407V18.53H99.496v6.159
	h12.775v9.127H99.496v7.99h12.775v8.286H99.496v8.01h12.775v8.824H99.496v6.744c4.214-0.155,8.575-0.296,12.775-0.552v8.972
	c-10.958,0.989-22.75,1.683-35.095,2.235v-9.82c3.931-0.122,7.74-0.27,11.51-0.27v-7.31h-11.51v-8.824h11.51v-8.01h-11.51v-8.286
	h11.51v-7.99h-11.51v-9.127h11.51V18.53h-11.51V8.407h11.51V1.118h10.81v7.289H112.271z M112.271,102.559H77.176v-9.666h35.095
	V102.559z M112.271,115.764v13.758c-0.969,0-2.1,0.134-3.231,0.134c-5.196,0-10.11-0.41-14.741-1.252l-1.817-11.092
	c5.627,0.976,11.093,1.676,16.558,1.676C110.709,118.989,111.84,117.871,112.271,115.764 M77.176,124.737v-17.104
	c3.244,3.069,6.475,6.448,9.692,10.09l-9.41,7.458L77.176,124.737z M50.939,4.207l1.131,0.411c-0.282,1.285-0.727,2.658-1.131,4.065
	V4.207z M77.176,8.407H52.07V18.51h25.106V8.407z M77.176,24.689v9.127h-11.51v7.99h11.51v8.286h-11.51v8.01h11.51v8.824H54.305
	V24.689H77.176z M77.176,74.504v9.82c-8.01,0.276-16.41,0.559-25.106,0.7l-1.131-5.042v-5.189
	C59.811,74.793,68.628,74.793,77.176,74.504 M77.176,92.893v9.666h-5.748c1.938,1.575,3.796,3.392,5.748,5.075v17.104
	c-4.631-5.87-10.083-11.645-16.127-17.104l7.282-5.075H50.939v-9.666H77.176z M40.83,1.118l10.109,3.089v4.477
	c-2.665,8.729-5.896,17.413-9.558,25.819v96.258H30.154V57.812c-3.931,6.589-7.835,12.769-11.927,18.375l-6.3-11.369
	C25.254,44.76,34.92,23.558,40.83,1.118 M50.939,74.793h-1.265l1.265,5.189V74.793z M50.939,92.893h-3.365v9.666h3.365V92.893z"/>
<path fill-rule="evenodd" clip-rule="evenodd" fill="#C11920" d="M1120.557,227.181c1.695-18.53,7.861-33.109,18.55-43.919
	c12.762-12.762,30.72-19.23,54.022-19.23c18.105,0,32.402,3.682,42.93,11.099c10.392,7.303,18.119,18.651,23.167,33.816
	l-39.43,8.831c-1.386-4.49-2.827-7.7-4.361-9.646c-2.53-3.393-5.479-6.064-9.087-7.902c-3.675-1.958-7.74-2.766-12.264-2.766
	c-10.069,0-17.796,4.039-23.127,12.183c-2.827,4.233-4.752,10.089-5.6,17.534H1120.557z"/>
<path fill-rule="evenodd" clip-rule="evenodd" d="M1221.466,251.91l39.173,11.927c-2.691,10.931-6.744,20.031-12.357,27.489
	c-5.762,7.31-12.762,12.896-21.188,16.558c-8.279,3.77-18.954,5.762-31.851,5.762c-15.724,0-28.62-2.369-38.608-6.879
	c-9.962-4.631-18.497-12.641-25.819-24.137c-7.162-11.496-10.797-26.25-10.797-44.208v-0.565h44.761v0.269
	c0,16.02,2.517,27.112,7.282,33.008c4.914,6.031,11.793,8.966,20.489,8.966c8.562,0,15.023-2.396,19.398-7.296
	C1216.27,268.01,1219.5,261.145,1221.466,251.91"/>
<rect x="1034.967" y="237.856" fill-rule="evenodd" clip-rule="evenodd" width="44.773" height="73.124"/>
<path fill-rule="evenodd" clip-rule="evenodd" fill="#C11920" d="M1079.741,194.226v32.961h-44.773V194.63v-0.693v-42.512
	c0-12.775,10.123-23.296,22.454-23.296c12.21,0,22.319,10.521,22.319,23.296v42.512V194.226z"/>
<rect x="851.846" y="237.856" fill-rule="evenodd" clip-rule="evenodd" width="41.96" height="73.124"/>
<rect x="947.95" y="166.435" fill-rule="evenodd" clip-rule="evenodd" fill="#C11920" width="42.108" height="60.753"/>
<polygon fill-rule="evenodd" clip-rule="evenodd" points="942.215,237.856 947.95,246.417 947.95,237.856 990.072,237.856 
	990.072,310.98 947.95,310.98 898.155,237.856 "/>
<polygon fill-rule="evenodd" clip-rule="evenodd" fill="#C11920" points="851.833,166.435 893.511,166.435 934.906,227.188 
	851.833,227.188 "/>
<path fill-rule="evenodd" clip-rule="evenodd" fill="#C11920" d="M664.742,227.181c2.006-18.086,8.319-32.544,19.25-43.488
	c13.206-13.071,31.447-19.661,54.87-19.661c24.15,0,42.66,6.468,55.705,19.371c10.931,10.944,17.258,25.544,18.954,43.778h-44.747
	c-0.982-8.696-3.527-15.272-7.592-19.93c-5.479-6.3-12.923-9.39-22.32-9.39c-9.127,0-16.289,3.09-21.754,9.538
	c-3.796,4.51-6.327,11.086-7.417,19.782H664.742z"/>
<path fill-rule="evenodd" clip-rule="evenodd" d="M664.203,238.852v-0.996h44.774v1.131c0,14.592,2.665,25.12,8.131,31.554
	c5.344,6.327,12.775,9.571,22.037,9.571c9.693,0,17.124-3.244,22.32-9.41c5.196-6.192,7.848-17.124,7.848-32.847h44.774
	c-0.135,16.827-2.962,30.612-8.589,41.408c-5.708,10.796-13.865,19.21-24.688,25.254c-10.648,5.896-24.124,8.992-40.143,8.992
	c-16.262,0-29.71-2.666-40.547-7.861c-10.662-5.223-19.224-13.341-25.941-24.582C667.568,269.854,664.203,255.679,664.203,238.852"
	/>
<rect x="553.036" y="237.856" fill-rule="evenodd" clip-rule="evenodd" width="44.505" height="73.124"/>
<polygon fill-rule="evenodd" clip-rule="evenodd" fill="#C11920" points="507.455,166.435 643.149,166.435 643.149,202.203 
	597.541,202.203 597.541,227.188 553.049,227.188 553.049,202.203 507.455,202.203 "/>
<path fill-rule="evenodd" clip-rule="evenodd" fill="#C11920" d="M336.113,227.181c1.804-18.086,8.279-32.544,19.237-43.488
	c13.018-13.071,31.406-19.661,54.856-19.661c23.989,0,42.647,6.468,55.557,19.371c11.079,10.944,17.406,25.544,19.075,43.778
	h-44.747c-0.969-8.696-3.662-15.272-7.565-19.93c-5.627-6.3-13.058-9.39-22.481-9.39c-8.965,0-16.127,3.09-21.592,9.538
	c-3.931,4.51-6.327,11.086-7.593,19.782H336.113z"/>
<path fill-rule="evenodd" clip-rule="evenodd" d="M335.548,238.852v-0.996h44.747v1.131c0,14.592,2.679,25.12,8.023,31.554
	c5.479,6.327,12.91,9.571,22.171,9.571c9.692,0,17.11-3.244,22.306-9.41c5.21-6.192,7.862-17.124,7.862-32.847h44.612
	c0,16.827-2.8,30.612-8.427,41.408c-5.734,10.796-13.866,19.21-24.662,25.254c-10.823,5.896-24.15,8.992-40.17,8.992
	c-16.262,0-29.737-2.666-40.547-7.861c-10.661-5.223-19.25-13.341-25.94-24.582C338.913,269.854,335.548,255.679,335.548,238.852"/>
<polygon fill-rule="evenodd" clip-rule="evenodd" points="298.07,237.856 298.07,310.98 253.162,310.98 253.162,252.583 
	204.323,252.583 204.323,310.98 159.71,310.98 159.71,237.856 "/>
<polygon fill-rule="evenodd" clip-rule="evenodd" fill="#C11920" points="159.71,166.435 204.323,166.435 204.323,217.091 
	253.148,217.091 253.148,166.435 298.07,166.435 298.07,227.188 159.71,227.188 "/>
<path fill-rule="evenodd" clip-rule="evenodd" d="M115.502,237.856c-1.696,2.652-3.662,5.062-5.923,7.148
	c-8.817,8.306-22.158,12.372-40.264,12.372H44.908v53.604H0v-73.124H115.502z"/>
<path fill-rule="evenodd" clip-rule="evenodd" fill="#C11920" d="M0,166.435h74.376c16.141,0,28.203,3.917,36.199,11.631
	c8.145,7.585,12.062,18.543,12.062,32.712c0,6.011-0.673,11.497-2.235,16.41H65.801c3.513-0.707,6.313-1.972,8.144-3.507
	c3.514-3.103,5.344-6.893,5.344-11.523c0-4.617-1.548-8.407-4.631-11.644c-2.961-3.063-8.696-4.591-16.975-4.591H44.908v31.265H0
	V166.435z"/>
<path d="M1038.911,418.324v-9.423c5.614,0,10.353-2.1,14.148-6.421c3.662-4.375,5.627-10.958,5.627-19.803
	c0-8.292-1.965-14.592-5.734-18.779c-3.796-4.375-8.427-6.475-14.041-6.475v-9.544c9.249,0,16.841,3.083,22.711,9.114
	c5.909,6.165,8.723,14.458,8.723,25.146c0,8.696-1.292,15.562-3.796,20.462c-2.666,4.913-6.435,8.857-11.362,11.55
	C1050.125,416.924,1044.793,418.324,1038.911,418.324 M1109.06,416.79v-67.363h10.258v9.666c4.9-7.431,12.062-11.213,21.311-11.213
	c4.079,0,7.888,0.848,11.24,2.261c3.365,1.521,5.909,3.353,7.579,5.748c1.817,2.383,2.948,5.183,3.648,8.428
	c0.431,2.1,0.538,5.734,0.538,11.079v41.395h-11.362v-40.978c0-4.631-0.403-8.158-1.373-10.393
	c-0.834-2.262-2.383-4.214-4.644-5.466c-2.248-1.399-4.914-2.1-7.997-2.1c-4.913,0-8.979,1.535-12.627,4.631
	c-3.5,3.096-5.195,8.966-5.195,17.541v36.764H1109.06z M1201.838,396.731l11.362-1.831c0.565,4.469,2.396,7.969,5.196,10.379
	c2.961,2.383,7,3.621,12.196,3.621c5.236,0,9.127-1.077,11.645-3.23c2.544-2.073,3.782-4.577,3.782-7.404
	c0-2.679-1.104-4.631-3.365-6.179c-1.535-0.983-5.466-2.262-11.631-3.783c-8.428-2.1-14.188-3.931-17.42-5.479
	c-3.23-1.535-5.734-3.81-7.27-6.448c-1.695-2.666-2.53-5.762-2.53-8.966c0-3.096,0.7-5.775,1.966-8.454
	c1.399-2.517,3.365-4.631,5.6-6.3c1.831-1.279,4.227-2.41,7.31-3.365c3.083-0.835,6.3-1.414,9.8-1.414
	c5.345,0,9.976,0.848,13.893,2.369c4.079,1.562,7.014,3.513,8.845,6.192c1.966,2.517,3.231,6.044,3.931,10.393l-11.092,1.521
	c-0.539-3.5-1.939-6.165-4.335-8.131c-2.531-1.952-5.896-2.935-10.393-2.935c-5.196,0-8.979,0.982-11.214,2.665
	c-2.248,1.683-3.379,3.77-3.379,6.031c0,1.535,0.565,2.8,1.4,4.065c0.969,1.131,2.396,2.262,4.348,2.935
	c1.279,0.458,4.631,1.4,10.11,2.975c8.144,2.114,13.758,3.917,16.988,5.331c3.097,1.387,5.601,3.353,7.431,6.018
	c1.805,2.518,2.801,5.762,2.801,9.692c0,3.783-1.131,7.431-3.365,10.823c-2.235,3.353-5.493,5.87-9.666,7.7
	c-4.092,1.845-8.857,2.8-14.188,2.8c-8.696,0-15.414-1.804-19.937-5.465C1206.039,409.197,1203.09,403.866,1201.838,396.731
	 M1038.911,347.879v9.544c-5.762,0-10.393,2.1-14.202,6.3c-3.769,4.362-5.6,10.823-5.6,19.358c0,8.723,1.831,15.185,5.6,19.398
	c3.81,4.321,8.44,6.421,14.202,6.421v9.423c-9.409,0-16.975-3.069-22.898-9.127c-5.761-6.004-8.696-14.74-8.696-26.115
	c0-12.466,3.513-21.728,10.392-27.637C1023.47,350.423,1030.47,348.013,1038.911,347.879 M824.479,417.759v-8.696
	c2.773-0.431,5.465-1.239,7.861-2.517c3.473-1.952,6.018-4.631,7.565-8.01c1.239-2.531,1.804-6.313,1.804-11.335v-4.24
	c-3.904,1.683-9.652,2.948-17.231,4.24v-9.585c7.7-0.969,13.461-2.221,17.231-3.607c0.175-1.589,0.175-2.558,0.175-2.962
	c0-4.631-1.131-7.889-3.244-9.841c-2.961-2.517-7.296-3.782-13.058-3.782h-1.104v-9.41c0.821,0,1.817-0.134,2.773-0.134
	c5.762,0,10.419,0.7,14.041,2.086c3.527,1.414,6.179,3.11,7.875,5.062c1.669,2.127,2.8,4.631,3.5,7.875
	c0.431,1.952,0.565,5.345,0.565,10.541v15.145c0,10.675,0.27,17.244,0.848,20.044c0.431,2.827,1.387,5.627,2.8,8.158H844.94
	c-1.104-2.383-1.952-5.21-2.234-8.292c-4.213,3.527-8.279,6.031-12.223,7.592C828.517,416.79,826.579,417.369,824.479,417.759
	 M921.161,406.545l1.535,10.109c-3.069,0.714-6.031,0.996-8.562,0.996c-4.065,0-7.283-0.565-9.666-1.992
	c-2.261-1.252-3.796-2.935-4.792-5.196c-0.835-2.1-1.4-6.596-1.4-13.462v-38.608h-8.427v-8.965h8.427v-16.571l11.375-6.852v23.423
	h11.51v8.965h-11.51v39.309c0,3.231,0.148,5.331,0.579,6.3c0.404,0.849,1.117,1.67,1.938,2.262c0.996,0.404,2.262,0.687,3.931,0.687
	C917.365,406.949,919.061,406.801,921.161,406.545 M957.495,323.876h11.51v13.044h-11.51V323.876z M957.495,349.427h11.51v67.363
	h-11.51V349.427z M824.479,348.013v9.41c-4.792,0.135-8.441,0.969-10.81,2.8c-2.544,1.831-4.348,5.196-5.627,9.989l-11.079-1.562
	c0.969-4.752,2.692-8.562,4.9-11.497c2.37-2.961,5.762-5.223,10.124-6.906C815.634,349.009,819.848,348.296,824.479,348.013
	 M824.479,377.616v9.585c-0.431,0-0.862,0.107-1.266,0.107c-4.792,0.714-8.158,1.4-9.989,2.235c-1.938,0.862-3.486,2.114-4.483,3.81
	c-1.117,1.548-1.683,3.379-1.683,5.344c0,3.069,1.131,5.601,3.5,7.565c2.235,2.101,5.627,3.083,10.097,3.083
	c1.279,0,2.558-0.148,3.823-0.283v8.696c-2.101,0.283-4.362,0.565-6.597,0.565c-7.323,0-13.058-1.804-16.988-5.465
	c-3.931-3.662-5.896-8.266-5.896-13.745c0-3.379,0.7-6.327,2.234-9.114c1.427-2.692,3.393-4.927,5.896-6.609
	c2.369-1.548,5.062-2.813,8.158-3.648c2.235-0.565,5.6-1.266,10.096-1.669C822.5,377.912,823.496,377.764,824.479,377.616
	 M123.067,418.324v-9.423c5.762,0,10.393-2.1,14.175-6.421c3.783-4.375,5.627-10.958,5.627-19.803
	c0-8.292-1.844-14.592-5.627-18.779c-3.783-4.375-8.562-6.475-14.175-6.475v-9.544c9.262,0,16.854,3.083,22.723,9.114
	c5.923,6.165,8.858,14.458,8.858,25.146c0,8.696-1.4,15.562-3.931,20.462c-2.666,4.913-6.461,8.857-11.375,11.55
	C134.456,416.924,128.963,418.324,123.067,418.324 M193.257,416.79v-67.363h10.096v9.531c2.235-3.365,5.035-6.031,8.562-7.996
	c3.338-1.952,7.431-3.083,11.927-3.083c4.9,0,9.127,1.13,12.209,3.217c3.231,1.979,5.452,4.914,6.758,8.562
	c5.291-7.727,12.318-11.779,20.731-11.779c6.758,0,11.954,1.979,15.454,5.614c3.648,3.661,5.317,9.409,5.317,17.123v46.174h-11.227
	v-42.404c0-4.618-0.404-7.835-1.104-9.801c-0.862-2.1-2.127-3.661-4.092-4.927c-1.966-1.266-4.2-1.804-6.866-1.804
	c-4.631,0-8.562,1.535-11.792,4.766c-3.096,3.069-4.631,8.144-4.631,14.996v39.174h-11.362v-43.805
	c0-5.035-0.996-8.804-2.827-11.348c-1.804-2.544-4.887-3.783-9.101-3.783c-3.217,0-6.165,0.834-8.979,2.531
	c-2.679,1.669-4.631,4.2-5.91,7.431c-1.265,3.23-1.804,7.996-1.804,14.027v34.947H193.257z M326.555,416.79v-67.363h10.258v9.531
	c2.1-3.365,4.9-6.031,8.4-7.996c3.527-1.952,7.444-3.083,11.927-3.083c5.075,0,9.141,1.13,12.21,3.217
	c3.244,1.979,5.492,4.914,6.744,8.562c5.466-7.727,12.358-11.779,20.92-11.779c6.609,0,11.779,1.979,15.292,5.614
	c3.635,3.661,5.465,9.409,5.465,17.123v46.174h-11.348v-42.404c0-4.618-0.431-7.835-1.131-9.801c-0.713-2.1-2.113-3.661-4.079-4.927
	c-1.831-1.266-4.2-1.804-6.745-1.804c-4.752,0-8.696,1.535-11.779,4.766c-3.218,3.069-4.766,8.144-4.766,14.996v39.174h-11.362
	v-43.805c0-5.035-0.996-8.804-2.827-11.348c-1.831-2.544-4.887-3.783-9.127-3.783c-3.231,0-6.152,0.834-8.831,2.531
	c-2.8,1.669-4.752,4.2-6.031,7.431c-1.131,3.23-1.831,7.996-1.831,14.027v34.947H326.555z M503.927,416.79v-9.989
	c-5.169,7.727-12.331,11.523-21.323,11.523c-3.931,0-7.727-0.834-11.093-2.235c-3.5-1.562-6.031-3.527-7.7-5.762
	c-1.696-2.396-2.786-5.196-3.527-8.562c-0.417-2.234-0.7-5.762-0.7-10.662v-41.678h11.523v37.343c0,6.017,0.134,9.961,0.7,12.035
	c0.7,3.11,2.235,5.358,4.469,7.175c2.396,1.683,5.223,2.517,8.723,2.517c3.338,0,6.596-0.834,9.531-2.666
	c3.097-1.669,5.196-4.2,6.314-7.135c1.279-3.109,1.979-7.458,1.979-13.219v-36.051h11.361v67.363H503.927z M557.263,416.79v-67.363
	h10.231v9.666c5.062-7.431,12.224-11.213,21.351-11.213c4.065,0,7.834,0.848,11.227,2.261c3.379,1.521,5.883,3.353,7.592,5.748
	c1.656,2.383,2.921,5.183,3.635,8.428c0.417,2.1,0.565,5.734,0.565,11.079v41.395h-11.389v-40.978c0-4.631-0.404-8.158-1.4-10.393
	c-0.834-2.262-2.396-4.214-4.604-5.466c-2.396-1.399-4.927-2.1-7.889-2.1c-4.887,0-8.952,1.535-12.627,4.631
	c-3.473,3.096-5.196,8.966-5.196,17.541v36.764H557.263z M654.672,323.876h11.361v13.044h-11.361V323.876z M654.672,349.427h11.361
	v67.363h-11.361V349.427z M752.62,392.087l11.228,1.548c-1.252,7.714-4.362,13.758-9.396,18.106
	c-5.062,4.348-11.375,6.583-18.685,6.583c-9.127,0-16.558-3.069-22.158-9.127c-5.614-5.896-8.427-14.565-8.427-25.806
	c0-7.283,1.265-13.624,3.635-19.075c2.396-5.479,6.071-9.545,10.985-12.224c4.887-2.8,10.217-4.213,15.965-4.213
	c7.431,0,13.354,1.979,17.958,5.614c4.631,3.661,7.741,8.992,8.993,15.709l-11.079,1.669c-1.131-4.456-2.948-7.821-5.614-10.083
	c-2.666-2.234-5.882-3.5-9.692-3.5c-5.761,0-10.514,2.1-14.027,6.166c-3.662,4.2-5.493,10.662-5.493,19.627
	c0,9.006,1.831,15.615,5.358,19.681c3.365,4.039,7.848,6.139,13.475,6.139c4.497,0,8.252-1.387,11.214-4.052
	C749.968,402.062,751.758,397.849,752.62,392.087 M49.539,392.087l11.227,1.548c-1.252,7.714-4.361,13.758-9.423,18.106
	c-5.021,4.348-11.2,6.583-18.523,6.583c-9.249,0-16.706-3.069-22.32-9.127c-5.573-5.896-8.387-14.565-8.387-25.806
	c0-7.283,1.239-13.624,3.648-19.075c2.369-5.479,6.031-9.545,11.065-12.224c4.927-2.8,10.258-4.213,15.993-4.213
	c7.323,0,13.327,1.979,17.985,5.614c4.604,3.661,7.579,8.992,8.993,15.709l-11.106,1.669c-1.117-4.456-2.935-7.821-5.613-10.083
	c-2.8-2.234-6.031-3.5-9.827-3.5c-5.735,0-10.393,2.1-14.027,6.166c-3.5,4.2-5.331,10.662-5.331,19.627
	c0,9.006,1.696,15.615,5.196,19.681c3.5,4.039,7.996,6.139,13.596,6.139c4.51,0,8.131-1.387,11.227-4.052
	C46.874,402.062,48.839,397.849,49.539,392.087 M123.067,347.879v9.544c-5.762,0-10.393,2.1-14.162,6.3
	c-3.796,4.362-5.627,10.823-5.627,19.358c0,8.723,1.831,15.185,5.627,19.398c3.769,4.321,8.4,6.421,14.162,6.421v9.423
	c-9.396,0-16.962-3.069-22.858-9.127c-5.762-6.004-8.696-14.74-8.696-26.115c0-12.466,3.473-21.728,10.365-27.637
	C107.788,350.423,114.789,348.013,123.067,347.879"/>
<path fill-rule="evenodd" clip-rule="evenodd" fill="#727171" d="M1057.287,2.787c51.922,0,94.03,40.843,94.03,91.23
	c0,3.089-0.135,5.896-0.418,8.851c-4.657-46.335-44.773-82.547-93.478-82.547c-48.813,0-88.969,36.212-93.586,82.547
	c-0.296-2.955-0.458-5.762-0.458-8.851C963.377,43.629,1005.512,2.787,1057.287,2.787"/>
<path fill="none" stroke="#727171" stroke-width="0.216" stroke-miterlimit="10" d="M1057.287,2.787
	c51.922,0,94.03,40.843,94.03,91.23c0,3.089-0.135,5.896-0.418,8.851c-4.657-46.335-44.773-82.547-93.478-82.547
	c-48.813,0-88.969,36.212-93.586,82.547c-0.296-2.955-0.458-5.762-0.458-8.851C963.377,43.629,1005.512,2.787,1057.287,2.787z"/>
<path fill-rule="evenodd" clip-rule="evenodd" fill="#727171" d="M1057.287,58.384c32.146,0,58.101,25.947,58.101,57.939
	c0,3.655-0.296,7.155-0.982,10.695c-4.914-27.099-28.633-47.601-57.118-47.601c-28.364,0-52.057,20.502-56.984,47.601
	c-0.7-3.541-0.983-7.041-0.983-10.695C999.32,84.331,1025.274,58.384,1057.287,58.384"/>
<path fill="none" stroke="#727171" stroke-width="0.216" stroke-miterlimit="10" d="M1057.287,58.384
	c32.146,0,58.101,25.947,58.101,57.939c0,3.655-0.296,7.155-0.982,10.695c-4.914-27.099-28.633-47.601-57.118-47.601
	c-28.364,0-52.057,20.502-56.984,47.601c-0.7-3.541-0.983-7.041-0.983-10.695C999.32,84.331,1025.274,58.384,1057.287,58.384z"/>
</svg>
